<svg xmlns="http://www.w3.org/2000/svg" viewBox="0 0 1024 1024" role="img" aria-labelledby="title desc">
  <title id="title">Gaoyi Wu wax seal</title>
  <desc id="desc">A hand-stamped silver wax seal bearing the name Gaoyi Wu.</desc>
  <defs>
    <filter id="shadow" x="-20%" y="-20%" width="140%" height="140%">
      <feDropShadow dx="0" dy="26" stdDeviation="20" flood-color="#101820" flood-opacity=".3"/>
    </filter>
    <filter id="soften">
      <feGaussianBlur stdDeviation="1.2"/>
    </filter>
    <style>
      @font-face { font-family: 'GaoyiScript'; src: url('/assets/fonts/mynerve-400.woff2') format('woff2'); }
      .seal-name { font-family: 'GaoyiScript', cursive; fill: #5e6770; text-anchor: middle; }
    </style>
  </defs>
  <g filter="url(#shadow)">
    <path d="M512 105C600 90 643 143 714 159C783 176 862 159 900 219C938 278 893 345 916 413C940 483 1003 530 974 596C945 661 861 670 813 723C765 776 763 864 695 889C630 913 568 854 501 871C433 888 381 958 316 927C251 896 257 808 211 758C166 708 79 687 72 619C65 551 137 505 145 438C153 369 96 301 143 252C191 203 266 239 326 211C388 182 431 119 512 105Z" fill="#d9d6d0"/>
    <path d="M512 148C585 135 635 184 700 197C764 210 836 198 866 251C895 302 855 360 875 419C895 477 950 523 924 579C898 635 824 643 781 692C738 741 738 818 680 840C623 862 572 811 510 825C448 839 396 897 341 871C286 845 294 769 254 723C214 677 136 659 130 600C124 542 190 503 198 440C206 377 154 322 196 278C238 234 305 269 360 244C415 220 445 161 512 148Z" fill="#efeeea"/>
    <path d="M512 219C645 219 753 327 753 460C753 593 645 701 512 701C379 701 271 593 271 460C271 327 379 219 512 219Z" fill="#d4d7db" stroke="#f9fafb" stroke-width="15"/>
    <circle cx="512" cy="460" r="207" fill="none" stroke="#8e969e" stroke-opacity=".42" stroke-width="12"/>
    <circle cx="512" cy="460" r="183" fill="none" stroke="#ffffff" stroke-opacity=".74" stroke-width="8"/>
    <text class="seal-name" x="512" y="437" font-size="117" transform="rotate(-4 512 460)">Gaoyi</text>
    <text class="seal-name" x="512" y="550" font-size="134" transform="rotate(-4 512 460)">Wu</text>
    <path d="M347 635C432 680 596 684 682 636" fill="none" stroke="#9ba2a9" stroke-width="9" stroke-linecap="round" opacity=".42"/>
    <path d="M315 308C388 251 505 235 588 267" fill="none" stroke="#fff" stroke-width="18" stroke-linecap="round" opacity=".48" filter="url(#soften)"/>
  </g>
</svg>
