<svg xmlns="http://www.w3.org/2000/svg" width="1200" height="760" viewBox="0 0 1200 760" role="img" aria-labelledby="title desc">
  <title id="title">iSeal ownership verification system</title>
  <desc id="desc">A security engineering console showing cryptographic model fingerprint enrollment, adversarial probes, and verified ownership evidence.</desc>
  <defs>
    <pattern id="dots" width="24" height="24" patternUnits="userSpaceOnUse"><circle cx="2" cy="2" r="1" fill="#cdd8dc"/></pattern>
    <filter id="shadow" x="-20%" y="-20%" width="140%" height="140%"><feDropShadow dx="0" dy="8" stdDeviation="10" flood-color="#1b3744" flood-opacity=".13"/></filter>
  </defs>
  <rect width="1200" height="760" fill="#eef2ef"/>
  <rect x="28" y="26" width="1144" height="708" rx="18" fill="#fbfcfa" filter="url(#shadow)"/>
  <rect x="28" y="26" width="1144" height="62" rx="18" fill="#143847"/>
  <path d="M58 47l14-7 14 7v12c0 11-7 18-14 22-7-4-14-11-14-22z" fill="#8ee0c0"/><path d="M66 58l5 5 9-12" fill="none" stroke="#143847" stroke-width="3"/>
  <text x="104" y="64" fill="#fff" font-family="Arial, sans-serif" font-size="18" font-weight="700">iSEAL / LLM OWNERSHIP VERIFICATION</text>
  <rect x="910" y="43" width="106" height="28" rx="7" fill="#1d4d5d"/><text x="963" y="61" fill="#b8e2d3" font-family="Arial, sans-serif" font-size="10" text-anchor="middle">AAAI 2026</text>
  <rect x="1028" y="43" width="116" height="28" rx="7" fill="#dff6ed"/><circle cx="1047" cy="57" r="5" fill="#2d9b70"/><text x="1092" y="61" fill="#257657" font-family="Arial, sans-serif" font-size="10" text-anchor="middle">KEY SECURED</text>

  <rect x="52" y="112" width="1096" height="328" rx="10" fill="url(#dots)" stroke="#d5dee0"/>
  <text x="76" y="147" fill="#344d57" font-family="Arial, sans-serif" font-size="13" font-weight="700">Cryptographic fingerprint pipeline</text>
  <text x="76" y="168" fill="#7e9097" font-family="Arial, sans-serif" font-size="9">Key-bound enrollment and black-box verification</text>
  <g fill="none" stroke="#7f959d" stroke-width="2"><path d="M238 290H338"/><path d="M506 290H606"/><path d="M774 290H874"/><path d="M956 333V374H320V334"/></g>
  <g fill="#7f959d"><path d="M338 290l-10-6v12z"/><path d="M606 290l-10-6v12z"/><path d="M874 290l-10-6v12z"/></g>
  <g font-family="Arial, sans-serif" text-anchor="middle">
    <rect x="92" y="222" width="146" height="136" rx="10" fill="#fff" stroke="#cbd7da"/>
    <circle cx="165" cy="267" r="24" fill="#fff0cf" stroke="#d7a84c"/><path d="M154 267h30M174 267v15M180 276h-12" stroke="#95681f" stroke-width="4"/><text x="165" y="320" fill="#364f59" font-size="11" font-weight="700">HMAC-SHA256</text><text x="165" y="340" fill="#83949a" font-size="9">secret key</text>
    <rect x="338" y="222" width="168" height="136" rx="10" fill="#fff" stroke="#cbd7da"/>
    <rect x="382" y="249" width="80" height="46" rx="8" fill="#e8f2f5" stroke="#5b899a"/><text x="422" y="276" fill="#315866" font-size="11" font-weight="700">LoRA</text><text x="422" y="320" fill="#364f59" font-size="11" font-weight="700">Key encoder</text><text x="422" y="340" fill="#83949a" font-size="9">5 min / A100</text>
    <rect x="606" y="222" width="168" height="136" rx="10" fill="#fff" stroke="#cbd7da"/>
    <path d="M648 260h84v42h-84z" fill="#e6f5ef" stroke="#54a783"/><circle cx="670" cy="281" r="7" fill="#54a783"/><circle cx="710" cy="281" r="7" fill="#54a783"/><path d="M677 281h26" stroke="#54a783" stroke-width="2"/><text x="690" y="320" fill="#364f59" font-size="11" font-weight="700">Fingerprint model</text><text x="690" y="340" fill="#83949a" font-size="9">125M - 13B params</text>
    <rect x="874" y="222" width="168" height="136" rx="10" fill="#143847" stroke="#143847"/>
    <path d="M928 274l18 18 36-42" fill="none" stroke="#8ee0c0" stroke-width="7" stroke-linecap="round"/><text x="958" y="320" fill="#fff" font-size="11" font-weight="700">Ownership proof</text><text x="958" y="340" fill="#9fc6d4" font-size="9">Bayesian threshold</text>
    <rect x="320" y="374" width="636" height="42" rx="8" fill="#eef5f6" stroke="#cbd7da"/><text x="638" y="399" fill="#526a73" font-size="10">External probe - similarity scoring - adversarial verification</text>
  </g>

  <g font-family="Arial, sans-serif">
    <rect x="52" y="464" width="302" height="242" rx="10" fill="#fff" stroke="#d5dee0"/>
    <text x="76" y="498" fill="#344d57" font-size="13" font-weight="700">Verification result</text>
    <text x="76" y="532" fill="#819299" font-size="9" font-weight="700">FINGERPRINT SUCCESS RATE</text>
    <text x="76" y="584" fill="#173d4b" font-size="39" font-weight="700">100%</text>
    <rect x="76" y="604" width="254" height="10" rx="5" fill="#e4ecee"/><rect x="76" y="604" width="254" height="10" rx="5" fill="#45aa80"/>
    <rect x="76" y="640" width="254" height="42" rx="8" fill="#eaf7f1"/><circle cx="96" cy="661" r="6" fill="#2d9b70"/><text x="112" y="665" fill="#2b7055" font-size="10" font-weight="700">VERIFIED / evidence strong</text>

    <rect x="372" y="464" width="430" height="242" rx="10" fill="#fff" stroke="#d5dee0"/>
    <text x="396" y="498" fill="#344d57" font-size="13" font-weight="700">Attack resilience</text>
    <text x="396" y="532" fill="#819299" font-size="9" font-weight="700">10+ ATTACK CONDITIONS</text>
    <text x="396" y="568" fill="#536a73" font-size="10">Collusion unlearning</text><rect x="520" y="560" width="246" height="8" rx="4" fill="#e4ecee"/><rect x="520" y="560" width="236" height="8" rx="4" fill="#4e95ad"/>
    <text x="396" y="604" fill="#536a73" font-size="10">Response manipulation</text><rect x="520" y="596" width="246" height="8" rx="4" fill="#e4ecee"/><rect x="520" y="596" width="228" height="8" rx="4" fill="#4e95ad"/>
    <text x="396" y="640" fill="#536a73" font-size="10">8 / 16-bit quantization</text><rect x="520" y="632" width="246" height="8" rx="4" fill="#e4ecee"/><rect x="520" y="632" width="240" height="8" rx="4" fill="#45aa80"/>
    <text x="396" y="676" fill="#536a73" font-size="10">Alpaca fine-tuning</text><rect x="520" y="668" width="246" height="8" rx="4" fill="#e4ecee"/><rect x="520" y="668" width="224" height="8" rx="4" fill="#d3a14a"/>

    <rect x="820" y="464" width="328" height="242" rx="10" fill="#143847"/>
    <text x="844" y="498" fill="#c5dce4" font-size="13" font-weight="700">Evidence summary</text>
    <text x="844" y="544" fill="#8bb1bf" font-size="9" font-weight="700">MODELS VERIFIED</text><text x="1124" y="546" fill="#fff" font-size="18" text-anchor="end" font-weight="700">12</text>
    <path d="M844 562H1124" stroke="#2e5360"/>
    <text x="844" y="594" fill="#8bb1bf" font-size="9" font-weight="700">TRAINING SPEEDUP</text><text x="1124" y="596" fill="#fff" font-size="18" text-anchor="end" font-weight="700">46x</text>
    <path d="M844 612H1124" stroke="#2e5360"/>
    <text x="844" y="644" fill="#8bb1bf" font-size="9" font-weight="700">FALSE POSITIVES</text><text x="1124" y="646" fill="#8ee0c0" font-size="18" text-anchor="end" font-weight="700">0</text>
    <rect x="844" y="666" width="280" height="22" rx="7" fill="#1e5262"/><text x="984" y="681" fill="#bfe8d9" font-size="9" text-anchor="middle" font-weight="700">VERIFICATION AUDIT READY</text>
  </g>
</svg>
