<svg xmlns="http://www.w3.org/2000/svg" viewBox="0 0 1046 654" role="img" aria-labelledby="title desc">
  <title id="title">AI/ML Engineer</title>
  <desc id="desc">White die-cut sticker with black AI/ML Engineer lettering.</desc>
  <defs>
    <filter id="shadow" x="-15%" y="-20%" width="130%" height="145%">
      <feDropShadow dx="0" dy="24" stdDeviation="16" flood-color="#000" flood-opacity=".5"/>
    </filter>
  </defs>
  <g filter="url(#shadow)">
    <path fill="#050505" d="M76 58h104c20 0 35 7 48 20l16 16h96l21-19c13-12 29-18 47-18h81l20 18h91l18-17c13-12 29-18 47-18h95c23 0 42 9 56 26l20 25h67c29 0 52 24 52 53v71l-20 19 25 22v148c0 28-23 51-51 51h-55l-18 19v57c0 30-24 54-54 54H692l-22-22h-95l-20 22H390l-21-22H259l-18 18H87c-31 0-56-25-56-56V405l19-19v-85l-19-18v-95c0-30 20-55 45-55Z"/>
    <path fill="#fff" d="M92 87h84c19 0 31 7 42 18l18 18h113l24-22c11-10 23-15 39-15h67l20 18h110l19-17c11-10 23-15 39-15h83c15 0 27 5 37 18l20 25h76c13 0 24 11 24 24v63l-25 25 29 27v130c0 12-10 22-22 22h-69l-24 25v76c0 13-11 24-24 24H704l-23-24H561l-22 24H402l-22-24H248l-20 21H94c-18 0-32-14-32-32V421l21-21v-112l-21-20v-80c0-15 13-28 30-28Z"/>
    <g fill="#050505" stroke="#fff" stroke-linejoin="round" stroke-width="13" paint-order="stroke fill">
      <text x="523" y="279" text-anchor="middle" font-family="Arial Rounded MT Bold, Arial Black, Helvetica, sans-serif" font-size="202" font-weight="900" letter-spacing="-9">AI/ML</text>
      <text x="523" y="480" text-anchor="middle" font-family="Arial Rounded MT Bold, Arial Black, Helvetica, sans-serif" font-size="150" font-weight="900" letter-spacing="-8">ENGINEER</text>
    </g>
  </g>
</svg>
