<svg xmlns="http://www.w3.org/2000/svg" viewBox="0 0 360 360" role="img" aria-labelledby="title">
  <title id="title">Stevens Institute of Technology S</title>
  <filter id="shadow" x="-30%" y="-30%" width="160%" height="160%">
    <feDropShadow dx="0" dy="10" stdDeviation="8" flood-color="#182334" flood-opacity=".24"/>
  </filter>
  <g filter="url(#shadow)">
    <path d="M69 50h222l21 30-22 27 16 31-22 25 10 34-30 20 3 35-37 10-8 35h-44l-9-35-37-10 3-35-30-20 10-34-22-25 16-31-22-27z" fill="#fff"/>
    <path d="M82 71h196l14 20-21 26 15 29-23 24 9 29-29 18 2 31-30 8-8 29h-34l-8-29-30-8 2-31-29-18 9-29-23-24 15-29-21-26z" fill="#a32638"/>
    <path d="M121 106c17-12 40-18 67-18 28 0 51 6 68 18l-18 34c-12-9-28-14-48-14-14 0-25 3-33 8-7 5-11 11-11 18 0 8 6 14 17 18l47 16c30 10 45 29 45 56 0 22-9 40-28 53-18 13-42 19-72 19-36 0-65-8-87-23l19-37c19 14 41 21 66 21 16 0 29-3 38-9 9-5 13-12 13-21 0-10-7-17-22-22l-48-17c-27-10-40-28-40-54 0-22 8-40 25-52z" fill="#fff"/>
    <path d="M121 106c17-12 40-18 67-18 28 0 51 6 68 18l-8 16c-14-8-32-12-54-12-18 0-32 4-42 11zM94 251c19 14 41 21 66 21 16 0 29-3 38-9 7-4 11-10 12-17 2 14-2 25-13 33-12 8-28 12-48 12-25 0-47-6-66-18z" fill="#d5b46b" opacity=".95"/>
  </g>
</svg>
