<?xml version="1.0" encoding="utf-8"?>
<!-- Generator: Adobe Illustrator 19.2.1, SVG Export Plug-In . SVG Version: 6.00 Build 0)  -->
<svg version="1.1" id="layer" xmlns="http://www.w3.org/2000/svg" xmlns:xlink="http://www.w3.org/1999/xlink" x="0px" y="0px"
	 viewBox="0 0 652 652" style="enable-background:new 0 0 652 652;" xml:space="preserve">
<style type="text/css">
	.st0{fill:#9D1535;}
	.st1{fill:#B2B3B2;}
	.st2{fill:#FFFFFF;}
</style>
<path class="st0" d="M236.8,305.8h1.9v16.7h-1.9C236.8,322.5,236.8,305.8,236.8,305.8z M246.1,305.8h1.8l9.6,13.5v-13.5h1.7v16.7
	h-1.8l-9.6-13.3v13.3h-1.7L246.1,305.8 M272.1,305.5c0.5,0,1.1,0.1,1.8,0.2c0.7,0.1,1.3,0.4,1.9,0.8c0.6,0.4,1.2,1,1.6,1.8
	c0.5,0.8,0.8,1.8,0.9,3.1h-1.9c-0.2-0.9-0.4-1.7-0.7-2.2c-0.3-0.5-0.7-0.9-1.1-1.2c-0.4-0.3-0.8-0.4-1.3-0.5
	c-0.4-0.1-0.9-0.1-1.3-0.1c-0.5,0-1,0.1-1.4,0.2c-0.4,0.1-0.8,0.3-1.2,0.6c-0.3,0.2-0.6,0.5-0.8,0.9c-0.2,0.3-0.3,0.7-0.3,1
	c0,0.5,0.1,0.9,0.4,1.2c0.3,0.3,0.7,0.6,1.2,0.8c0.5,0.2,1,0.4,1.6,0.5c0.6,0.1,1.2,0.3,1.9,0.5c0.6,0.2,1.3,0.4,1.9,0.6
	c0.6,0.2,1.2,0.5,1.6,0.9c0.5,0.4,0.9,0.8,1.2,1.4c0.3,0.5,0.4,1.2,0.4,2c0,0.7-0.2,1.4-0.5,2c-0.3,0.6-0.8,1.1-1.4,1.6
	c-0.6,0.4-1.3,0.8-2.1,1c-0.8,0.2-1.8,0.4-2.8,0.4c-1.1,0-2-0.2-2.8-0.5c-0.8-0.3-1.4-0.8-1.9-1.4c-0.5-0.6-0.9-1.2-1.1-2
	c-0.2-0.8-0.4-1.6-0.4-2.4h1.9c0,0.8,0.1,1.4,0.3,2c0.2,0.6,0.5,1,0.9,1.4c0.4,0.4,0.8,0.6,1.4,0.8c0.5,0.2,1.1,0.3,1.7,0.3
	c0.7,0,1.3-0.1,1.9-0.2c0.6-0.1,1.1-0.3,1.5-0.5c0.4-0.2,0.7-0.6,1-0.9c0.2-0.4,0.4-0.8,0.4-1.4c0-0.8-0.2-1.4-0.7-1.8
	c-0.5-0.4-1.1-0.8-1.9-1c-0.8-0.3-1.6-0.5-2.5-0.7c-0.9-0.2-1.7-0.4-2.5-0.8c-0.8-0.3-1.4-0.8-1.9-1.3c-0.5-0.6-0.7-1.4-0.7-2.4
	c0-0.8,0.2-1.4,0.5-2c0.3-0.6,0.8-1,1.3-1.4c0.5-0.4,1.1-0.6,1.8-0.8C270.7,305.6,271.4,305.5,272.1,305.5 M296.7,305.8v1.8h-5.5
	v14.8h-1.9v-14.8h-5.5v-1.8L296.7,305.8 M303,305.8h1.9v16.7H303C303,322.5,303,305.8,303,305.8z M324,305.8v1.8h-5.5v14.8h-1.9
	v-14.8h-5.5v-1.8L324,305.8 M331.6,305.8v11.6c0,0.6,0.1,1.1,0.4,1.5c0.3,0.4,0.6,0.8,1,1.1c0.4,0.3,0.9,0.5,1.5,0.7
	c0.6,0.1,1.2,0.2,1.8,0.2s1.2-0.1,1.8-0.2s1.1-0.4,1.5-0.7c0.4-0.3,0.8-0.7,1-1.1c0.3-0.4,0.4-0.9,0.4-1.5v-11.6h1.9v12
	c0,0.8-0.2,1.6-0.6,2.2c-0.4,0.6-0.9,1.2-1.5,1.6c-0.6,0.4-1.3,0.7-2.1,0.9c-0.8,0.2-1.6,0.3-2.3,0.3s-1.5-0.1-2.3-0.3
	c-0.8-0.2-1.5-0.5-2.1-0.9c-0.6-0.4-1.1-0.9-1.5-1.6c-0.4-0.6-0.6-1.4-0.6-2.2v-12L331.6,305.8 M361.6,305.8v1.8h-5.5v14.8h-1.9
	v-14.8h-5.5v-1.8L361.6,305.8 M379.6,305.8v1.8h-10.4v5h9.8v1.9h-9.8v6.1h10.4v1.8h-12.3v-16.7H379.6 M440.5,305.8v1.8H435v14.8
	h-1.9v-14.8h-5.5v-1.8H440.5 M458.6,305.8v1.8h-10.4v5h9.8v1.9h-9.8v6.1h10.4v1.8h-12.3v-16.7H458.6 M472.3,305.5
	c1,0,1.9,0.1,2.7,0.3c0.8,0.2,1.5,0.6,2.1,1c0.6,0.5,1.1,1.1,1.5,1.8c0.4,0.8,0.7,1.7,0.9,2.7h-1.9c-0.1-0.8-0.4-1.4-0.7-1.9
	c-0.3-0.5-0.8-0.9-1.3-1.3c-0.5-0.3-1-0.5-1.6-0.7c-0.6-0.1-1.1-0.2-1.7-0.2c-0.7,0-1.4,0.1-2.1,0.4c-0.7,0.2-1.3,0.6-1.9,1.2
	c-0.6,0.5-1,1.2-1.4,2.1c-0.3,0.9-0.5,1.9-0.5,3.2c0,1.3,0.2,2.3,0.5,3.2c0.4,0.9,0.8,1.6,1.4,2.1c0.6,0.5,1.2,0.9,1.9,1.2
	c0.7,0.2,1.4,0.4,2.1,0.4c0.6,0,1.2-0.1,1.8-0.3c0.6-0.2,1.1-0.4,1.6-0.8c0.5-0.4,0.9-0.8,1.3-1.4c0.3-0.6,0.6-1.2,0.7-2h1.9
	c-0.1,1.1-0.4,2-0.9,2.8c-0.5,0.8-1,1.5-1.7,2c-0.7,0.5-1.4,0.9-2.2,1.2c-0.8,0.2-1.6,0.4-2.5,0.4c-1.2,0-2.3-0.2-3.3-0.6
	c-1-0.4-1.8-0.9-2.5-1.6c-0.7-0.7-1.2-1.6-1.6-2.7c-0.4-1.1-0.5-2.3-0.5-3.8c0-1.4,0.2-2.7,0.6-3.8c0.4-1.1,0.9-2,1.6-2.7
	c0.7-0.7,1.5-1.3,2.5-1.6C470,305.7,471.1,305.5,472.3,305.5 M488.1,305.8v7.1h9.2v-7.1h1.9v16.7h-1.9v-7.7h-9.2v7.7h-1.9v-16.7
	H488.1 M506.2,305.8h1.8l9.6,13.5v-13.5h1.7v16.7h-1.8l-9.6-13.3v13.3h-1.7L506.2,305.8 M533.6,307.4c-0.7,0-1.4,0.1-2.1,0.4
	c-0.7,0.2-1.4,0.6-1.9,1.2c-0.6,0.5-1,1.2-1.4,2.1c-0.4,0.9-0.5,1.9-0.5,3.2c0,1.3,0.2,2.3,0.5,3.2c0.4,0.9,0.8,1.6,1.4,2.1
	c0.6,0.5,1.2,0.9,1.9,1.2c0.7,0.2,1.4,0.4,2.1,0.4c0.7,0,1.5-0.1,2.1-0.4c0.7-0.2,1.3-0.6,1.9-1.2c0.5-0.5,1-1.2,1.3-2.1
	c0.3-0.9,0.5-1.9,0.5-3.2c0-1.3-0.2-2.3-0.5-3.2c-0.3-0.9-0.8-1.6-1.3-2.1c-0.5-0.5-1.2-0.9-1.9-1.2
	C535.1,307.5,534.4,307.4,533.6,307.4L533.6,307.4z M533.6,305.5c1.2,0,2.2,0.2,3.2,0.5c1,0.4,1.8,0.9,2.5,1.6
	c0.7,0.7,1.2,1.6,1.6,2.7c0.4,1.1,0.6,2.4,0.6,3.8c0,1.5-0.2,2.7-0.5,3.8c-0.4,1.1-0.9,2-1.6,2.7c-0.7,0.7-1.5,1.3-2.4,1.6
	c-1,0.4-2,0.5-3.2,0.5c-1.2,0-2.3-0.2-3.3-0.6c-1-0.4-1.8-0.9-2.5-1.6c-0.7-0.7-1.2-1.6-1.6-2.7c-0.4-1.1-0.6-2.3-0.6-3.8
	c0-1.4,0.2-2.7,0.6-3.8c0.4-1.1,0.9-2,1.6-2.7c0.7-0.7,1.5-1.3,2.5-1.6C531.4,305.7,532.4,305.5,533.6,305.5L533.6,305.5z
	 M549.6,305.8v14.8h8.5v1.8h-10.4v-16.7H549.6 M571.3,307.4c-0.7,0-1.4,0.1-2.1,0.4c-0.7,0.2-1.4,0.6-1.9,1.2
	c-0.6,0.5-1,1.2-1.4,2.1c-0.4,0.9-0.5,1.9-0.5,3.2c0,1.3,0.2,2.3,0.5,3.2c0.4,0.9,0.8,1.6,1.4,2.1c0.6,0.5,1.2,0.9,1.9,1.2
	c0.7,0.2,1.4,0.4,2.1,0.4c0.7,0,1.4-0.1,2.1-0.4c0.7-0.2,1.3-0.6,1.9-1.2c0.5-0.5,1-1.2,1.3-2.1c0.3-0.9,0.5-1.9,0.5-3.2
	c0-1.3-0.2-2.3-0.5-3.2c-0.3-0.9-0.8-1.6-1.3-2.1c-0.5-0.5-1.2-0.9-1.9-1.2C572.7,307.5,572,307.4,571.3,307.4L571.3,307.4z
	 M571.3,305.5c1.2,0,2.2,0.2,3.2,0.5c1,0.4,1.8,0.9,2.4,1.6c0.7,0.7,1.2,1.6,1.6,2.7c0.4,1.1,0.6,2.4,0.6,3.8c0,1.5-0.2,2.7-0.5,3.8
	c-0.4,1.1-0.9,2-1.5,2.7c-0.7,0.7-1.5,1.3-2.5,1.6c-1,0.4-2,0.5-3.2,0.5c-1.2,0-2.3-0.2-3.3-0.6c-1-0.4-1.8-0.9-2.5-1.6
	c-0.7-0.7-1.2-1.6-1.6-2.7c-0.4-1.1-0.6-2.3-0.6-3.8c0-1.4,0.2-2.7,0.6-3.8c0.4-1.1,0.9-2,1.6-2.7c0.7-0.7,1.5-1.3,2.5-1.6
	C569,305.7,570.1,305.5,571.3,305.5L571.3,305.5z M584.9,314.2c0-1.4,0.2-2.7,0.6-3.8c0.4-1.1,0.9-2,1.6-2.7
	c0.7-0.7,1.5-1.3,2.5-1.6c1-0.4,2-0.5,3.2-0.5c1,0,1.8,0.1,2.7,0.3c0.8,0.2,1.5,0.5,2.1,1c0.6,0.5,1.1,1.1,1.5,1.8
	c0.4,0.8,0.7,1.7,0.9,2.7h-1.9c-0.1-0.8-0.4-1.4-0.7-1.9c-0.3-0.5-0.8-0.9-1.3-1.3c-0.5-0.3-1-0.5-1.6-0.7c-0.6-0.1-1.1-0.2-1.7-0.2
	c-0.7,0-1.4,0.1-2.1,0.4c-0.7,0.2-1.3,0.6-1.9,1.2c-0.6,0.5-1,1.2-1.4,2.1c-0.3,0.9-0.5,1.9-0.5,3.2c0,1.3,0.2,2.3,0.6,3.2
	c0.4,0.9,1,1.6,1.6,2.1c0.7,0.5,1.4,0.9,2.2,1.2c0.8,0.2,1.5,0.4,2.2,0.4c0.2,0,0.5,0,1,0c0.4,0,0.8-0.1,1.3-0.1
	c0.5,0,0.9-0.1,1.3-0.1c0.4-0.1,0.8-0.1,1-0.2v-4.8h-3.8v-1.8h5.7v8.1c-0.5,0.2-1,0.3-1.6,0.4c-0.6,0.1-1.2,0.2-1.8,0.3
	s-1.2,0.1-1.7,0.1c-0.5,0-1,0-1.3,0c-1.2,0-2.3-0.2-3.4-0.5c-1.1-0.4-2-0.9-2.7-1.6c-0.8-0.7-1.4-1.6-1.9-2.7
	C585.1,316.9,584.9,315.6,584.9,314.2 M612.5,314l5-8.2h2.3l-6.3,10v6.7h-1.9v-6.7l-6.3-10h2.3L612.5,314 M237,332.3h384v2H237
	V332.3z M400.5,309.4c-2.8,0-4.5,3.2-4.5,7.3c0,2,0.9,2.8,2.5,2.8c2.9,0,4.5-3.4,4.5-7.3C403,310.1,401.8,309.4,400.5,309.4
	 M398.2,321c-2.7,0-4.3-1.7-4.3-4.5c0-5,3-8.7,7-8.7c2.9,0,4.3,1.8,4.3,4.6C405.2,317.2,402.3,321,398.2,321 M416.2,304.5
	c-0.6-0.4-1.2-0.6-1.9-0.6c-1.1,0-1.9,0.8-2.2,2.2l-0.4,1.9h3.5l-0.9,1.5h-2.9l-2.3,11.4c-0.5,2.3-1,3.7-1.9,4.9l-1.6-0.9
	c0.8-1.1,1.3-2.2,1.6-4.2l2.2-11.3h-1.3l0.3-1.5h1.3l0.3-1.7c0.3-1.7,0.9-2.8,1.9-3.4c0.7-0.5,1.5-0.6,2.4-0.6
	c1.1,0,1.8,0.2,2.5,0.6L416.2,304.5 M287.9,245.4l-2.5,1.2l-7-7.8c-1.2-0.9-2.3-1.7-3.3-2.5c-1.1-0.8-2.1-1.4-3.2-2
	c-1.2-0.6-2.5-1.2-3.8-1.6c-1.3-0.4-2.8-0.6-4.4-0.7c-1.3-0.1-2.7,0-4.1,0.3c-1.3,0.2-2.6,0.6-3.8,1.1c-1.2,0.5-2.3,1.2-3.3,1.9
	c-0.9,0.8-1.7,1.7-2.2,2.7c-0.6,1.4-0.9,2.6-0.9,3.6c0,1.1,0.2,2,0.5,2.9c0.4,0.9,0.8,1.6,1.5,2.2c0.6,0.6,1.3,1.2,1.9,1.6
	c1.4,1,2.9,1.8,4.5,2.4c1.6,0.6,3.2,1.1,4.8,1.5c1.9,0.5,3.8,0.9,5.7,1.3c1.9,0.4,3.9,0.8,5.7,1.3c1.7,0.5,3.3,1,4.9,1.5
	c1.6,0.5,3,1.1,4.4,1.8c1.4,0.7,2.6,1.5,3.7,2.5c1.1,0.9,2.1,2.1,2.9,3.4c0.8,1.2,1.3,2.5,1.6,3.9c0.3,1.4,0.5,2.9,0.5,4.3
	c0,1.4-0.2,2.8-0.5,4.1c-0.3,1.3-0.7,2.5-1.1,3.5c-0.8,1.5-1.7,2.9-2.7,4.1c-1,1.2-2.2,2.3-3.4,3.3c-1.4,1.1-2.9,1.9-4.4,2.6
	c-1.5,0.7-3,1.3-4.5,1.7c-1.3,0.4-2.7,0.7-4,0.8c-1.3,0.1-2.6,0.2-3.8,0.2c-1.2-0.1-2.5-0.2-3.8-0.3c-1.3-0.1-2.6-0.3-4-0.5
	c-1.1-0.2-2.1-0.5-3.3-0.9c-1.1-0.4-2.2-0.9-3.3-1.4c-0.8-0.4-1.6-0.9-2.5-1.3c-0.8-0.5-1.6-0.9-2.4-1.3l-1.2,4.2h-3.8l-5.7-20.8
	l3.3-0.5c0.8,1.5,1.7,2.9,2.6,4.3c0.9,1.4,1.9,2.7,2.9,4c1.1,1.3,2.2,2.5,3.4,3.7c1.2,1.1,2.5,2.2,4,3.1c1.5,0.9,3,1.7,4.4,2.2
	c1.5,0.5,3,0.9,4.4,1.1c1.5,0.2,2.9,0.2,4.3,0.2c1.4-0.1,2.7-0.2,4-0.4c1.5-0.2,2.8-0.7,4-1.3c1.2-0.6,2.3-1.4,3.3-2.2
	c1-0.9,1.8-1.8,2.5-2.9c0.7-1,1.2-2.1,1.5-3.1c0.4-1.5,0.6-2.8,0.6-4.1c0-1.2-0.2-2.3-0.6-3.3c-0.4-1-0.9-1.8-1.6-2.6
	c-0.7-0.8-1.5-1.4-2.4-1.9c-1.6-0.8-3.2-1.4-4.8-1.9c-1.6-0.5-3.2-1-4.9-1.4c-1.7-0.4-3.4-0.8-5.1-1.1c-1.7-0.3-3.3-0.7-5-1.1
	c-1.8-0.4-3.5-0.9-5.2-1.6c-1.7-0.6-3.3-1.4-4.8-2.1c-1.5-0.8-2.8-1.7-3.9-2.6c-1.1-0.9-2-1.9-2.5-2.9c-0.7-1.2-1.2-2.5-1.5-3.9
	c-0.3-1.3-0.4-2.7-0.4-4c0.1-1.8,0.4-3.4,1-5c0.6-1.6,1.4-3,2.4-4.2c1.2-1.4,2.5-2.6,4-3.5c1.5-0.9,3-1.6,4.7-2.1
	c1.9-0.6,3.8-0.9,5.8-1c2-0.1,4-0.1,6,0c1.3,0.1,2.5,0.3,3.7,0.6c1.2,0.3,2.3,0.6,3.4,1c1.1,0.4,2.2,0.8,3.3,1.3
	c1.1,0.5,2.2,1,3.4,1.5l1-3h3.3L287.9,245.4 M342.6,238.6l4.2,13.5l-2.7,0.8c-0.5-1-1.2-1.9-1.8-2.9c-0.7-1-1.4-1.9-2.2-2.7
	c-0.8-0.9-1.7-1.6-2.6-2.3c-0.9-0.7-2-1.3-3-1.8c-1-0.4-2.1-0.8-3.2-1.1c-1.1-0.3-2.3-0.4-3.5-0.5c-0.6,0-1.1,0-1.6,0.1
	c-0.4,0.1-0.8,0.2-1.1,0.4c-0.3,0.2-0.5,0.5-0.7,0.9c-0.2,0.4-0.2,0.9-0.2,1.5v41.9l8.3,2.2v2.4h-23.7v-2.3l7.7-2.1v-41.9
	c0-0.6-0.1-1-0.2-1.4c-0.1-0.4-0.4-0.7-0.6-0.9c-0.2-0.2-0.5-0.4-0.9-0.5c-0.3-0.1-0.7-0.2-1-0.2c-1.1,0-2.2,0.1-3.2,0.3
	c-1.1,0.2-2.1,0.4-3.1,0.8c-1.4,0.5-2.7,1.2-4,2.1c-1.3,0.9-2.4,1.8-3.4,2.8c-0.8,0.9-1.4,1.7-2,2.7c-0.6,0.9-1.1,1.9-1.4,2.9
	l-2.8-0.9l4.4-13.6H342.6 M394.7,238.6l5,13.9l-2.3,0.7c-0.8-1-1.6-2-2.5-2.8c-0.9-0.9-1.9-1.8-2.9-2.6c-1-0.8-2-1.5-3.2-2.1
	c-1.1-0.7-2.2-1.2-3.4-1.7c-1.4-0.6-2.8-1.1-4.2-1.5c-1.5-0.4-3-0.6-4.5-0.7c-1.2-0.1-2.4-0.1-3.6-0.1c-1.2,0.1-2.3,0.2-3.5,0.4
	c-0.7,0.1-1.2,0.4-1.8,0.7c-0.6,0.4-1,0.8-1.4,1.3c-0.3,0.4-0.6,1-0.8,1.5c-0.2,0.6-0.3,1.2-0.3,1.8v13.7h12.6l2.3-9.7h2.8v23h-2.6
	l-2.6-9.7h-12.5v16.7c0,0.6,0.1,1.2,0.4,1.8c0.2,0.6,0.6,1.2,0.9,1.7c0.4,0.6,0.9,1,1.4,1.4c0.6,0.4,1.1,0.6,1.7,0.7
	c1.2,0.2,2.4,0.3,3.6,0.4c1.2,0.1,2.4,0.1,3.6,0.1c1.5-0.1,3-0.3,4.5-0.7c1.5-0.4,3-0.9,4.4-1.5c1.3-0.6,2.7-1.4,4.1-2.3
	c1.4-1,2.7-2,4.1-3.3c0.9-0.9,1.9-1.9,2.8-2.9c0.9-1.1,1.8-2.2,2.7-3.4l2.6,1l-6.9,16.5h-44.2v-2.3l6.5-1.7v-44.1l-6.8-1.9v-2.3
	L394.7,238.6 M424.6,238.3v2.6l-7.4,2l15,39.5l15.5-39.6l-8.3-2.2v-2.2h20.2v2l-6.9,1.8L432.8,291H428l-19.7-48.6l-6.2-1.6v-2.4
	L424.6,238.3 M507.8,238.6l5,13.9l-2.3,0.7c-0.7-1-1.6-2-2.5-2.8c-0.9-0.9-1.8-1.8-2.8-2.6c-1-0.8-2-1.5-3.2-2.1
	c-1.1-0.7-2.2-1.2-3.4-1.7c-1.3-0.6-2.8-1.1-4.2-1.5c-1.5-0.4-3-0.6-4.5-0.7c-1.2-0.1-2.4-0.1-3.6-0.1c-1.2,0.1-2.3,0.2-3.5,0.4
	c-0.6,0.1-1.2,0.4-1.8,0.7c-0.6,0.4-1,0.8-1.4,1.3c-0.4,0.4-0.6,1-0.8,1.5c-0.2,0.6-0.3,1.2-0.3,1.8v13.7h12.6l2.3-9.7h2.8v23h-2.6
	l-2.6-9.7h-12.5v16.7c0,0.6,0.1,1.2,0.4,1.8c0.2,0.6,0.5,1.2,0.9,1.7c0.4,0.6,0.9,1,1.4,1.4c0.6,0.4,1.1,0.6,1.7,0.7
	c1.2,0.2,2.4,0.3,3.6,0.4c1.2,0.1,2.4,0.1,3.6,0.1c1.5-0.1,3-0.3,4.5-0.7c1.5-0.4,3-0.9,4.4-1.5c1.3-0.6,2.7-1.4,4.1-2.3
	c1.4-1,2.7-2,4.1-3.3c0.9-0.9,1.9-1.9,2.8-2.9c0.9-1.1,1.8-2.2,2.7-3.4l2.5,1l-6.9,16.5h-44.3v-2.3l6.5-1.7v-44.1l-6.8-1.9v-2.3
	L507.8,238.6 M535.7,238.6l25.5,41.6V243l-7.6-2v-2.2h18.7v2.3l-6.8,1.9v48.2h-6.9l-28.6-46.5v42l7.7,2.1v2.2H519v-2.3l6.8-1.8v-44
	l-6.8-1.9v-2.5L535.7,238.6 M614.6,253.1l-2,1l-5.6-6.3c-1-0.7-1.9-1.4-2.7-2c-0.8-0.6-1.7-1.2-2.6-1.6c-1-0.5-2-0.9-3.1-1.3
	c-1.1-0.3-2.3-0.5-3.5-0.6c-1.1-0.1-2.2,0-3.3,0.2c-1.1,0.2-2.1,0.5-3.1,0.8c-1,0.4-1.9,1-2.6,1.6c-0.8,0.6-1.3,1.4-1.8,2.2
	c-0.5,1.1-0.7,2.1-0.7,2.9c0,0.9,0.1,1.6,0.4,2.3c0.3,0.7,0.7,1.3,1.2,1.8c0.5,0.5,1,0.9,1.5,1.3c1.1,0.8,2.4,1.5,3.6,2
	c1.3,0.5,2.6,0.9,3.9,1.2c1.5,0.4,3.1,0.7,4.6,1c1.6,0.3,3.1,0.7,4.6,1c1.4,0.4,2.7,0.8,4,1.2c1.3,0.4,2.5,0.9,3.6,1.5
	c1.1,0.6,2.1,1.2,3,2c0.9,0.8,1.7,1.7,2.3,2.7c0.6,1,1.1,2,1.3,3.2c0.3,1.2,0.4,2.3,0.4,3.5c0,1.1-0.1,2.3-0.4,3.3
	c-0.3,1.1-0.6,2-0.9,2.8c-0.6,1.2-1.3,2.4-2.2,3.3c-0.8,1-1.7,1.9-2.7,2.6c-1.1,0.9-2.3,1.6-3.6,2.1c-1.2,0.6-2.5,1-3.6,1.4
	c-1.1,0.3-2.2,0.6-3.2,0.7c-1,0.1-2.1,0.2-3.1,0.2c-1-0.1-2-0.1-3.1-0.3c-1-0.1-2.1-0.3-3.2-0.4c-0.9-0.1-1.7-0.4-2.6-0.7
	c-0.9-0.3-1.8-0.7-2.7-1.1c-0.7-0.3-1.3-0.7-2-1.1c-0.7-0.4-1.3-0.7-1.9-1.1l-1,3.4h-3.1l-4.6-16.8l2.6-0.4c0.7,1.2,1.4,2.3,2.1,3.5
	c0.8,1.1,1.6,2.2,2.4,3.2c0.9,1,1.8,2,2.7,3c1,0.9,2,1.8,3.2,2.5c1.2,0.8,2.4,1.4,3.6,1.8c1.2,0.4,2.4,0.7,3.6,0.9
	c1.2,0.1,2.3,0.2,3.5,0.1c1.1,0,2.2-0.2,3.3-0.4c1.2-0.2,2.3-0.5,3.3-1.1c1-0.5,1.9-1.1,2.6-1.8c0.8-0.7,1.5-1.5,2-2.3
	c0.5-0.8,0.9-1.7,1.2-2.5c0.3-1.2,0.5-2.3,0.5-3.3s-0.2-1.9-0.5-2.7c-0.3-0.8-0.7-1.5-1.3-2.1c-0.6-0.6-1.2-1.1-1.9-1.5
	c-1.3-0.6-2.6-1.1-3.9-1.6c-1.3-0.4-2.6-0.8-4-1.1c-1.4-0.3-2.7-0.6-4.1-0.9c-1.3-0.3-2.7-0.6-4-0.9c-1.4-0.3-2.8-0.8-4.2-1.3
	c-1.4-0.5-2.7-1.1-3.9-1.7c-1.2-0.7-2.2-1.4-3.2-2.1c-0.9-0.8-1.6-1.5-2-2.4c-0.6-1-1-2-1.2-3.1c-0.2-1.1-0.3-2.2-0.3-3.2
	c0-1.4,0.3-2.8,0.8-4.1c0.5-1.3,1.1-2.4,1.9-3.4c1-1.1,2-2.1,3.2-2.8c1.2-0.7,2.5-1.3,3.8-1.7c1.5-0.5,3.1-0.7,4.7-0.8
	c1.6-0.1,3.2-0.1,4.9,0c1,0.1,2,0.2,3,0.5c0.9,0.2,1.9,0.5,2.7,0.8c0.9,0.3,1.8,0.7,2.6,1c0.9,0.4,1.8,0.8,2.7,1.2l0.8-2.4h2.6
	L614.6,253.1"/>
<path class="st1" d="M248.6,344.9v1.8h-5.3v14.2h-1.8v-14.2h-5.3v-1.8H248.6 M254.9,344.9v6.8h8.8v-6.8h1.8v16h-1.8v-7.4h-8.8v7.4
	H253v-16H254.9 M282.8,344.9v1.8h-9.9v4.8h9.4v1.8h-9.4v5.8h10v1.8h-11.7v-16H282.8 M296.6,344.9h1.8v16h-1.8V344.9z M304.3,344.9
	h1.7l9.1,12.9v-12.9h1.6v16h-1.7l-9.1-12.8v12.8h-1.6L304.3,344.9 M322.4,344.9h1.7l9.1,12.9v-12.9h1.6v16h-1.7l-9.1-12.8v12.8h-1.6
	L322.4,344.9 M347.5,346.3c-0.7,0-1.4,0.1-2.1,0.3c-0.7,0.2-1.3,0.6-1.8,1.1c-0.5,0.5-1,1.2-1.3,2c-0.3,0.8-0.5,1.8-0.5,3
	c0,1.2,0.2,2.2,0.5,3.1c0.3,0.8,0.8,1.5,1.3,2c0.5,0.5,1.2,0.9,1.8,1.1c0.7,0.2,1.4,0.3,2.1,0.3c0.7,0,1.4-0.1,2.1-0.3
	c0.7-0.2,1.3-0.6,1.8-1.1c0.5-0.5,0.9-1.2,1.3-2c0.3-0.8,0.5-1.8,0.5-3c0-1.2-0.2-2.2-0.5-3c-0.3-0.8-0.8-1.5-1.3-2
	c-0.5-0.5-1.1-0.9-1.8-1.1C348.9,346.5,348.2,346.3,347.5,346.3L347.5,346.3z M347.5,344.6c1.1,0,2.1,0.2,3,0.5
	c0.9,0.3,1.7,0.8,2.3,1.5c0.6,0.7,1.1,1.5,1.5,2.6c0.4,1,0.5,2.3,0.5,3.7c0,1.4-0.2,2.6-0.5,3.6c-0.3,1-0.8,1.9-1.5,2.6
	c-0.6,0.7-1.4,1.2-2.3,1.6c-0.9,0.3-1.9,0.5-3.1,0.5c-1.2,0-2.2-0.2-3.1-0.5c-0.9-0.3-1.7-0.9-2.4-1.6c-0.7-0.7-1.2-1.6-1.5-2.6
	c-0.4-1-0.5-2.2-0.5-3.6c0-1.4,0.2-2.6,0.5-3.6c0.4-1,0.9-1.9,1.5-2.6c0.7-0.7,1.5-1.2,2.4-1.6C345.3,344.7,346.3,344.6,347.5,344.6
	L347.5,344.6z M365.1,359.1h0.8l4.6-14.2h2l-5.5,16h-3.2l-5.4-16h2.1L365.1,359.1 M377.3,355.1h6.6l-3-8.5h-0.8L377.3,355.1
	L377.3,355.1z M384.5,357h-7.8l-1.3,3.9h-2l5.6-16h3.2l5.7,16h-2.1L384.5,357z M401.5,344.9v1.8h-5.3v14.2h-1.8v-14.2h-5.3v-1.8
	H401.5 M406.3,344.9h1.8v16h-1.8V344.9z M421.1,346.3c-0.7,0-1.4,0.1-2.1,0.3c-0.7,0.2-1.3,0.6-1.8,1.1c-0.5,0.5-1,1.2-1.3,2
	c-0.3,0.8-0.5,1.8-0.5,3c0,1.2,0.2,2.2,0.5,3.1c0.3,0.8,0.8,1.5,1.3,2c0.5,0.5,1.2,0.9,1.8,1.1c0.7,0.2,1.4,0.3,2.1,0.3
	c0.7,0,1.4-0.1,2.1-0.3c0.7-0.2,1.3-0.6,1.8-1.1c0.5-0.5,0.9-1.2,1.3-2c0.3-0.8,0.5-1.8,0.5-3c0-1.2-0.2-2.2-0.5-3
	c-0.3-0.8-0.8-1.5-1.3-2c-0.5-0.5-1.1-0.9-1.8-1.1C422.4,346.5,421.8,346.3,421.1,346.3L421.1,346.3z M421.1,344.6
	c1.1,0,2.1,0.2,3,0.5c0.9,0.3,1.7,0.8,2.3,1.5c0.6,0.7,1.1,1.5,1.5,2.6c0.4,1,0.5,2.3,0.5,3.7c0,1.4-0.2,2.6-0.5,3.6
	c-0.3,1-0.8,1.9-1.5,2.6c-0.6,0.7-1.4,1.2-2.3,1.6c-0.9,0.3-1.9,0.5-3.1,0.5c-1.2,0-2.2-0.2-3.1-0.5c-0.9-0.3-1.7-0.9-2.4-1.6
	c-0.7-0.7-1.2-1.6-1.5-2.6c-0.4-1-0.5-2.2-0.5-3.6c0-1.4,0.2-2.6,0.5-3.6c0.4-1,0.9-1.9,1.5-2.6c0.7-0.7,1.5-1.2,2.4-1.6
	C418.9,344.7,419.9,344.6,421.1,344.6L421.1,344.6z M433.4,344.9h1.7l9.1,12.9v-12.9h1.6v16h-1.7l-9.1-12.8v12.8h-1.6L433.4,344.9
	 M461.5,344.9V356c0,0.6,0.1,1.1,0.4,1.5c0.2,0.4,0.6,0.8,1,1.1c0.4,0.3,0.9,0.5,1.4,0.6c0.5,0.1,1.1,0.2,1.7,0.2
	c0.6,0,1.2-0.1,1.7-0.2c0.5-0.2,1-0.4,1.4-0.7c0.4-0.3,0.7-0.6,1-1.1s0.4-0.9,0.4-1.4v-11.1h1.8v11.5c0,0.8-0.2,1.5-0.6,2.1
	c-0.4,0.6-0.9,1.1-1.5,1.5c-0.6,0.4-1.3,0.7-2,0.9c-0.7,0.2-1.5,0.3-2.2,0.3c-0.7,0-1.5-0.1-2.2-0.3c-0.7-0.2-1.4-0.5-2-0.9
	c-0.6-0.4-1.1-0.9-1.5-1.5c-0.4-0.6-0.6-1.3-0.6-2.1v-11.5H461.5 M477.8,344.9h1.7l9.1,12.9v-12.9h1.6v16h-1.7l-9.1-12.8v12.8h-1.6
	L477.8,344.9 M496.3,344.9h1.8v16h-1.8V344.9z M509.3,359.1h0.8l4.6-14.2h2l-5.5,16h-3.2l-5.4-16h2.1L509.3,359.1 M532.7,344.9v1.8
	h-9.9v4.8h9.4v1.8h-9.4v5.8h10v1.8H521v-16H532.7 M545.6,351.9c0.4,0,0.8-0.1,1.2-0.2c0.4-0.1,0.8-0.3,1.1-0.6
	c0.3-0.2,0.5-0.5,0.7-0.9c0.2-0.4,0.3-0.8,0.3-1.2c0-0.8-0.3-1.4-0.9-1.8c-0.6-0.4-1.4-0.5-2.5-0.5h-1.8c-0.4,0-0.8,0-1.2,0
	c-0.4,0-0.8,0-1.2,0c-0.4,0-0.7,0-1.1,0c-0.3,0-0.6,0-0.7,0v5.2L545.6,351.9L545.6,351.9z M544.1,353.4h-4.6v7.5h-1.8V345
	c0.4,0,0.9,0,1.6,0l2.2,0c0.8,0,1.5,0,2.2,0h1.7c1.7,0,3,0.3,3.9,0.9c1,0.6,1.4,1.6,1.4,3c0,0.7-0.1,1.3-0.4,1.8
	c-0.2,0.5-0.6,1-1,1.4c-0.4,0.4-0.9,0.7-1.5,1c-0.6,0.2-1.2,0.4-1.8,0.4l5.6,7.5h-2.3L544.1,353.4L544.1,353.4z M561.5,344.6
	c0.5,0,1.1,0.1,1.7,0.2c0.7,0.1,1.3,0.4,1.9,0.8c0.6,0.4,1.1,1,1.5,1.7c0.4,0.7,0.7,1.7,0.8,2.9h-1.9c-0.2-0.9-0.4-1.6-0.7-2.1
	c-0.3-0.5-0.6-0.9-1-1.2c-0.4-0.3-0.8-0.4-1.2-0.5c-0.4-0.1-0.9-0.1-1.3-0.1c-0.5,0-0.9,0.1-1.4,0.2c-0.4,0.1-0.8,0.3-1.1,0.5
	c-0.3,0.2-0.6,0.5-0.8,0.8c-0.2,0.3-0.3,0.6-0.3,1c0,0.5,0.1,0.9,0.4,1.2c0.3,0.3,0.7,0.6,1.1,0.8c0.5,0.2,1,0.4,1.6,0.5
	c0.6,0.1,1.2,0.3,1.8,0.4c0.6,0.2,1.2,0.3,1.8,0.6s1.1,0.5,1.6,0.8c0.5,0.3,0.8,0.8,1.1,1.3c0.3,0.5,0.4,1.2,0.4,2
	c0,0.7-0.2,1.4-0.5,1.9c-0.3,0.6-0.7,1.1-1.3,1.5c-0.6,0.4-1.2,0.7-2,1c-0.8,0.2-1.7,0.3-2.7,0.3c-1,0-1.9-0.2-2.7-0.5
	c-0.7-0.3-1.4-0.8-1.8-1.3c-0.5-0.6-0.8-1.2-1.1-1.9c-0.2-0.7-0.3-1.5-0.3-2.3h1.8c0,0.7,0.1,1.4,0.3,1.9c0.2,0.5,0.5,1,0.9,1.3
	c0.4,0.4,0.8,0.6,1.3,0.8c0.5,0.2,1,0.3,1.6,0.3c0.7,0,1.3-0.1,1.8-0.2c0.6-0.1,1-0.3,1.4-0.5c0.4-0.2,0.7-0.5,0.9-0.9
	c0.2-0.4,0.3-0.8,0.3-1.3c0-0.8-0.2-1.3-0.7-1.8c-0.5-0.4-1.1-0.7-1.8-1c-0.7-0.2-1.5-0.4-2.3-0.6c-0.8-0.2-1.6-0.4-2.3-0.7
	c-0.7-0.3-1.3-0.7-1.8-1.3c-0.5-0.5-0.7-1.3-0.7-2.3c0-0.7,0.2-1.4,0.5-1.9c0.3-0.5,0.7-1,1.3-1.4c0.5-0.4,1.1-0.6,1.7-0.8
	C560.2,344.7,560.9,344.6,561.5,344.6 M573.2,344.9h1.8v16h-1.8L573.2,344.9L573.2,344.9z M592.2,344.9v1.8h-5.3v14.2h-1.8v-14.2
	h-5.3v-1.8H592.2 M602.1,352.7l4.7-7.9h2.2l-6,9.6v6.4h-1.8v-6.4l-6.1-9.6h2.2L602.1,352.7 M616.3,348.3c0.6,0,0.9-0.3,0.9-1
	c0-0.3-0.1-0.5-0.2-0.6c-0.1-0.1-0.4-0.2-0.7-0.2c-0.3,0-0.6,0-0.9,0v1.7H616.3L616.3,348.3z M615.8,348.9h-0.4v2.7h-0.8v-5.7
	c0.2,0,0.5-0.1,0.8-0.1c0.3,0,0.5,0,0.8,0c0.6,0,1,0.1,1.3,0.3c0.3,0.2,0.4,0.6,0.4,1.1c0,0.5-0.1,0.9-0.4,1.2
	c-0.3,0.3-0.6,0.5-1,0.5l1.7,2.7h-0.9L615.8,348.9L615.8,348.9z M616.3,344.7c-0.4,0-0.8,0.1-1.2,0.2c-0.4,0.1-0.8,0.4-1.1,0.7
	c-0.3,0.3-0.6,0.7-0.8,1.2c-0.2,0.5-0.3,1.1-0.3,1.9c0,0.7,0.1,1.3,0.3,1.9c0.2,0.5,0.5,0.9,0.8,1.2c0.3,0.3,0.7,0.6,1.1,0.7
	c0.4,0.1,0.8,0.2,1.3,0.2c0.4,0,0.9-0.1,1.3-0.2c0.4-0.1,0.8-0.4,1.1-0.7c0.3-0.3,0.6-0.7,0.8-1.3c0.2-0.5,0.3-1.1,0.3-1.8
	c0-0.7-0.1-1.4-0.3-1.9c-0.2-0.5-0.4-0.9-0.8-1.2c-0.3-0.3-0.7-0.5-1.1-0.7C617.1,344.8,616.7,344.7,616.3,344.7L616.3,344.7z
	 M616.3,343.9c1.3,0,2.3,0.4,3.1,1.2c0.7,0.8,1.1,2,1.1,3.6c0,1.6-0.4,2.8-1.1,3.6c-0.7,0.8-1.8,1.2-3.1,1.2c-0.7,0-1.2-0.1-1.8-0.3
	c-0.5-0.2-1-0.5-1.4-0.9c-0.4-0.4-0.7-0.9-0.9-1.5c-0.2-0.6-0.3-1.3-0.3-2.1c0-0.8,0.1-1.5,0.3-2.1c0.2-0.6,0.5-1.1,0.9-1.5
	c0.4-0.4,0.8-0.7,1.4-0.9C615,344,615.6,343.9,616.3,343.9L616.3,343.9z"/>
<g>
	<path class="st0" d="M21,182.3v221.5l86.8,57.2l88-57.2V182.4L21,182.3z"/>
	<g>
		<path class="st2" d="M132.3,379.3c-11.6,8.4-23.1,16.8-23.1,16.8l-0.5,0.4l0,16.4c2.2-1.6,8.4-6.1,15.7-11.4
			c9.5-6.9,21.9-16,33.5-24.6l0.1-0.1c0.1-0.1,0.3-0.2,0.5-0.3c0.4-0.3,1-0.7,1.6-1.3c1.4-1.1,3.2-2.7,5-4.6c3.6-3.8,7.1-9,7.1-14.1
			c0-6-4.8-12.6-21.4-17.6l-0.1,1.5c8.2,4.3,11,8.7,11.1,12.6c-0.1,4.4-3.4,7.5-5.4,9l0,0l-0.7,0.5
			C155.4,362.5,143.8,371,132.3,379.3L132.3,379.3z M108.7,395.1l-0.2-0.5c0,0,39.9-29,45.6-33.1l0,0l0.6-0.4c0,0,0.1,0,0.1,0h0
			c1.6-1.1,5.4-4.3,5.3-8.2c0-3.1-2.3-7.1-10.7-11.4l-0.5-0.2l0.3-4.5l1,0.3c17.6,5.1,23.6,12.2,23.6,19.4
			c-0.1,11.6-14.9,21.6-15,21.8c-23.1,17-49.6,36.3-49.6,36.3l-0.5,0.4l0-0.7l-0.2-17.3L108.7,395.1L108.7,395.1z"/>
		<path class="st2" d="M57.5,359.7v-33.5c0-2.7,0.1-7.6,0.1-10.2c-4.1-1.5-11.6-6.3-14.6-11.2v63.4l65.7,46.7v-20.3L57.5,359.7"/>
		<path class="st2" d="M125.5,340c-0.8,0-1.7,0.7-1.7,1.7v7c0,0.9,0.8,1.7,1.7,1.7c0.9,0,1.7-0.8,1.7-1.7v-7
			C127.2,340.8,126.4,340,125.5,340L125.5,340z M130,347.4c0,2.2-2.1,3.9-4.6,3.9c-2.4,0-4.5-1.8-4.5-3.9v-4.3
			c0-2.2,2.1-3.9,4.5-3.9c2.5,0,4.6,1.8,4.6,3.9L130,347.4L130,347.4z M113.4,351.2h-3l4.4-11h-3.6c-0.5,0-0.9,0.4-0.9,0.8h-0.6
			v-1.6h8.4C118.2,339.4,113.4,351.2,113.4,351.2z M114.1,367.2c-1.7,0.1-3.3,0.8-4.6,2.2c-1.3,1.4-1.9,3.2-2,5h-0.2
			c0-1.8-0.7-3.6-2-5c-1.3-1.4-2.9-2.1-4.6-2.2V367c1.7,0,3.3-0.8,4.6-2.2c1.3-1.4,1.9-3.2,2-5h0.2c0,1.8,0.7,3.6,2,5
			c1.3,1.4,2.9,2.1,4.6,2.2L114.1,367.2L114.1,367.2z M97.8,347.7c0-1.5,1-2.7,2.4-3.3c-0.9-0.5-1.6-1.4-1.6-2.4
			c0-1.6,1.6-2.8,3.6-2.8c2,0,3.6,1.3,3.6,2.8c0,1-0.7,1.9-1.6,2.4c1.4,0.7,2.5,1.9,2.5,3.3c0,1.8-2,3.6-4.5,3.6
			C99.7,351.3,97.8,349.5,97.8,347.7L97.8,347.7z M94.7,351.2h-8.2v-0.8h1.8c0.5,0,0.9-0.4,0.9-0.8v-8.9c0-0.4-0.5-0.8-1.1-0.8v-0.5
			h4v10.2c0,0.4,0.4,0.8,0.9,0.8h1.8L94.7,351.2L94.7,351.2z M108.8,329.7h0.2c-13.3-2-33.5-7.6-47-12.5v41.3l46.6,30.9l46.9-32.7
			v-17.9C145.4,334.7,126.1,332.3,108.8,329.7L108.8,329.7z M102.2,344.1c0.6,0,1.1-0.5,1.1-1v-2c0-0.6-0.5-1.1-1.1-1.1
			c-0.6,0-1.1,0.5-1.1,1.1v2C101.1,343.6,101.6,344.1,102.2,344.1L102.2,344.1z M103.7,349.2v-2.9c0-0.8-0.7-1.4-1.5-1.4
			c-0.8,0-1.5,0.6-1.5,1.4v2.9c0,0.8,0.7,1.4,1.5,1.4C103,350.6,103.7,349.9,103.7,349.2z M62.2,267l-0.4,0.2 M130.9,257.4l0.3-0.7
			L130.9,257.4L130.9,257.4z M173.5,328v-52.3l-41.4-17.8l0.5,13.2l28,11.2v39c0,0.1,0,0.2,0,0.3C165.1,323.3,169.6,325.3,173.5,328
			L173.5,328z M173.9,330.2c-4.1-3.1-9.3-5.5-14.2-7.2l-0.5-0.2l-0.1-0.5c0-0.3-0.1-0.6-0.1-1v-37.9l-28-11.2l-0.6-15.5l-0.1-1.3
			l44.8,19.2v56.5L173.9,330.2L173.9,330.2z M108.5,209.6c-0.6,0-1.2,0.2-1.4,0.5c0,0-0.1-0.1-0.1-0.1c0.1,0.2,0.3,0.4,0.7,0.5
			c0.2-0.2,0.5-0.3,0.8-0.3c0.3,0,0.6,0.1,0.8,0.3c0.3-0.1,0.5-0.2,0.6-0.4C109.7,209.8,109.1,209.6,108.5,209.6 M107.4,209.3
			c0.3-0.1,0.6-0.2,1.1-0.2c0.4,0,0.7,0.1,1,0.2c0.1-0.1,0.2-0.3,0.3-0.4c-0.1-0.5-0.7-0.8-1.3-0.8c-0.6,0-1.2,0.3-1.3,0.8
			c0-0.1,0-0.2,0-0.2C107.1,208.9,107.2,209.1,107.4,209.3 M108,207.6c0.1,0,0.3-0.1,0.4-0.1c0.1,0,0.2,0,0.3,0
			c0.1-0.1,0.2-0.2,0.2-0.4c0-0.3-0.2-0.6-0.5-0.6c-0.3,0-0.5,0.2-0.5,0.6C107.8,207.4,107.9,207.5,108,207.6"/>
		<path class="st2" d="M94.2,271.7l1.8,10.4l0.2,0.5l0.2-0.4l0.2-10.3l5.4,1.6l0.3-0.3l-5.9-2L94.2,271.7L94.2,271.7z M134.6,284.5
			l2.7,9.6l-0.1-8.9l3.9,0.9l0.2-0.2l-4.2-1.5L134.6,284.5L134.6,284.5z M110.6,289.4l-23.3-6.6l0,0v0.7l23.4,6.4L110.6,289.4
			L110.6,289.4z M154.2,294.8l-3.2-1h-2.5l2.2,0.6l0.3,7.3l0.4,0.4l-0.1-7.6l2.8,0.6L154.2,294.8L154.2,294.8z M152.3,313.2
			c0.1-0.6,0.5-2.6,2-3.2c0,0,1.5,1.8,1.7,3.9L152.3,313.2L152.3,313.2z M147,297.5l-14.1-3.4l-1.2-19.2l7.6,2.8l-0.7,1.2L147,297.5
			L147,297.5z M142.2,308c0,0,0.1-1.8,1.4-2.9c0,0,1.2,1,1.5,3.2c0,0.1,0,0.1,0,0.2L142.2,308L142.2,308z M145.1,318.2
			c-0.9-0.2-1.8-0.4-2.8-0.6v-8.7l2.8,0.4L145.1,318.2L145.1,318.2z M140.6,317.3c-0.9-0.2-1.9-0.4-2.9-0.6V308l2.9,0.4
			C140.6,308.5,140.6,317.3,140.6,317.3z M139,304.2c0,0,1.2,1,1.5,3.2c0,0.1,0,0.1,0,0.2l-2.9-0.5
			C137.6,307.1,137.7,305.3,139,304.2L139,304.2z M125.3,314.6c-0.9-0.1-1.9-0.3-3.1-0.4v-10.1c0,0,0-1.4,1.6-2.7
			c0,0,1.1,1.6,1.4,3.5c0,0.1,0,0.1,0,0.2L125.3,314.6L125.3,314.6z M120.6,299.8c0-0.8,0.6-1.4,1.2-1.4c0.7,0,1.2,0.6,1.2,1.4
			c0,0.8-0.6,1.4-1.2,1.4C121.1,301.2,120.6,300.6,120.6,299.8L120.6,299.8z M100.7,298.9c0,0,0-2.3,1.9-3.8c0,0,1.3,1.4,1.7,4.1
			c0,0.1,0,0.2,0,0.2L100.7,298.9z M94.3,297.6c0,0,0-2.4,2-4c0,0,1.4,1.5,1.8,4.3c0,0.1,0,0.2,0,0.3L94.3,297.6L94.3,297.6z
			 M109.4,246.9l-0.1-2.8l0.6-1.2l21.9,9.9v1.5l-1.1,0.6l0.1,1L109.4,246.9L109.4,246.9z M127.5,271.1l-3.1-1.1v-11.2
			c0,0,0-1.4,1.6-2.7c0,0,1.1,1.6,1.4,3.5c0,0.1,0,0.1,0,0.2V271.1L127.5,271.1z M122.6,269.4l-3.7-1.3V257c0,0,0.3-1.9,2-3.3
			c0,0,1.7,2.3,1.7,4.3L122.6,269.4L122.6,269.4z M117.2,267.5l-4-1.4v-10.9c0,0,0.4-2.6,2.1-3.6c0,0,1.8,2.6,1.8,4.6L117.2,267.5
			L117.2,267.5z M87.8,281.8l1.5-19.5l0.8-1.9l14.1,5.1l-0.5,1.2l5.8,21.2L87.8,281.8L87.8,281.8z M87.7,259.5l0-3.8l-1-0.5V254
			l21.5-11.1l0.5,1.4l0.6,41l-5.1-18.7l0.2-0.4l0.2-0.5l-0.2,0.5l0.4-0.1l-0.4-10.8c0-0.7-1-3.2-1.7-3.5c-0.7,0.6-1.4,3-1.3,4.3
			l0.3,7.7l-2.4-0.9l-0.2-5c0-0.6-1-3.2-1.7-3.5c-0.7,0.6-1.4,2.9-1.3,4.3l0.1,3.2l-2-0.7l0-0.7c0-0.7-1-3.2-1.7-3.5
			c-0.7,0.6-1.2,2.8-1.3,3.2l-2.2-0.8h-0.6L87.7,259.5L87.7,259.5z M96.7,241.9v2.6l-0.5,0.6l1.2-0.5v-6.7l1.6-2l1.8,0.2v7l0.8-0.3
			l0-7.2l3.2,1.7l0.2-0.9l-3.3-1.7l3.8-1.6l2.4,8.5l-18.8,9.8L96.7,241.9L96.7,241.9z M110.8,232.8l-2.1,8.1l-2.1-8.1H110.8
			L110.8,232.8z M111.8,232.8l3.6,1.9l-3,1.3l0.8,0.8l3.2-1.1v6.5l1,0.5l0.1-6.5l1.2-0.4l1.3,1.6v6.5l1.3,0.7l-0.5-0.6v-3.8l7.9,9.8
			l-19-8.6C109.6,241.6,111.8,232.8,111.8,232.8z M65.5,298.4l6.8,1.2v7.6c-2.3-0.5-5.4-1.1-6.8-1.5V298.4L65.5,298.4z M69.1,292.3
			c0,0,3.5,2.1,3.3,5.7l-6.8-1.2C65.6,296.7,65.5,293.8,69.1,292.3L69.1,292.3z M141.1,282.9l-1.7-3.8l1.1-1.8L132,274l-0.8-18.8
			l1.2-0.7l-0.1-2.1l-1.4-0.6l-10.2-12.6l0-1.4l1.5-0.2l-3.1-4.1l-2.8,0.7v-1.2l-1.5-0.9v0.6l-3.2-0.6l-5.6-0.2l-3.4,0.8l0-0.3
			l-1,0.6v1.5l0,0l-3.3-0.6l-3.1,4.1l1.5,0.2v3.1l-10.5,12.9l0,1.4l1,0.7l-0.1,3.6l-6.8,3.1l-4.8-1.6l-1.3,0.6l6.1,2.1l0,0l6.6-3.1
			l0.9,1.5l-1.5,19.5l-7.6,3.1l2-19.5l-0.3-1.4l-0.3,1.5l-1.9,19.4l-16.2-4.1v-13.6l-0.1,0v37.6c2.7,0.8,8.2,2,16.4,3.5v-20.7
			l-16.3-4.2v-0.5l16.3,4.2l0,0v-0.6l-0.1,0l-16.2-4.2v-0.6l16.3,4.2l9-3.7l0.1,0l23.3,6.6v-0.1l2.9,0.7l0-10.7c0,0,0.5-2.2,2.1-3.6
			c0,0,1.8,2.6,1.8,4.6c0,1.1,0,8.6,0,10.7l2.2,0.5v-10.7c0,0,0.3-1.9,2-3.3c0,0,1.7,2.3,1.7,4.3v10.6l2,0.5v-10.5
			c0,0,0-1.4,1.6-2.7c0,0,1.1,1.6,1.4,3.5c0,0.1,0,0.1,0,0.2V293l4.6,1.1l0,0.3l16.4,4.1l-0.8,0.4l-15.6-3.8l0,0.3l15.3,3.8
			l-0.6,0.3l-15.1-3.8l0,0l-22.2-5.3v0L87.3,284v25.7c-1.1-0.2-2.2-0.3-3.3-0.5V298l-3.2,0.8l0.1,9.9c3.9,0.7,8.4,1.4,13.5,2.1
			v-11.9l3.8,0.6l0,11.8l-2.6-0.4c1.7,0.2,3.4,0.5,5.3,0.7V300l3.6,0.6V312l-2.9-0.4c3.2,0.4,6.5,0.8,10.1,1.2
			c1.9,0.2,3.8,0.4,5.6,0.7c0,0-0.1,0-0.1,0v-11c0-3.9,4.5-6.5,4.5-6.6l0.1-0.1l0.1,0.1c0.2,0.2,4.8,4.2,4.8,8.3v10.5l-0.3,0v-10.5
			c0-3.7-4-7.4-4.6-8c-0.6,0.4-4.3,2.8-4.3,6.3v11l2,0.3l-1.1-0.2v-10.2c0,0,0-1.4,1.6-2.7c0,0,1.1,1.6,1.4,3.5c0,0.1,0,0.1,0,0.2
			v9.6c13,1.8,22,3.6,27.6,5l-0.2-19h0l0-0.6l1-0.6l0-0.7l-1.6-0.4l-6.7-14.2l14.8,5v15.6l-7.3-1.8l0,0.5l7.2,1.7v0.6l-7.2-1.7
			l0,0.3l7.2,1.7v0.5l-7.2-1.7l0.2,15c1.2,0.3,2.3,0.6,3.1,0.8l-0.1-5.6l3.8,0.7c0,1.3,0,3.9,0.1,6.1l-0.6-0.2l0.7,0.2l0.3,0.1
			v-33.2L141.1,282.9L141.1,282.9z M78.6,308.3l2.2,0.4C80.8,308.6,78.6,308.3,78.6,308.3z M78.6,308.3l-0.3-0.1
			C78.4,308.2,78.5,308.2,78.6,308.3z M112,229.5l2.8,1.9l0.1-2.8v-0.2l-3.8-2.2h-4.9l-3.3,2.2v3.1l2.8-2.2
			C105.6,229.5,112,229.5,112,229.5z M143.7,305.9c-0.4,0-0.7,0.4-0.7,1s0.3,1,0.7,1c0.4,0,0.7-0.4,0.7-1S144.1,305.9,143.7,305.9z
			 M96.2,294.8c-0.6,0-1.1,0.6-1.1,1.3c0,0.7,0.5,1.3,1.1,1.3s1.1-0.6,1.1-1.3C97.3,295.4,96.8,294.8,96.2,294.8L96.2,294.8z
			 M102.6,296.2c-0.6,0-1,0.6-1,1.2c0,0.7,0.5,1.2,1,1.2c0.6,0,1-0.6,1-1.2C103.6,296.8,103.1,296.2,102.6,296.2z M83,296.1
			c0,0.7-0.3,1.3-0.6,1.3c-0.3,0-0.6-0.6-0.6-1.3c0-0.7,0.3-1.3,0.6-1.3C82.8,294.7,83,295.3,83,296.1z M80.9,298.3l3-0.8
			c0-2.5-1.4-4.3-1.4-4.3S80.9,295.4,80.9,298.3L80.9,298.3z M139.1,305c-0.4,0-0.8,0.4-0.8,1c0,0.6,0.3,1,0.8,1s0.8-0.4,0.8-1
			C139.8,305.4,139.5,305,139.1,305L139.1,305z M104,225.1l3.9-14.4l0.2-0.1l-2,13.6h-0.7L104,225.1L104,225.1z M110.2,224.2h-3.1
			l1.5-13.6L110.2,224.2L110.2,224.2z M109.2,210.7l4,14.3l-1.4-0.8H111l-2-13.6L109.2,210.7L109.2,210.7z M111.6,225l2.6,1.4
			l-5-16.3l-1.3,0l-4.7,16.5l2.6-1.5L111.6,225L111.6,225z M65.9,280.6l0.6-0.3l0.6-10.8l5.7,1.8l0.5-0.5l-6.5-2.2l-2.4,0.9
			l1.2,10.7L65.9,280.6L65.9,280.6z"/>
		<path class="st2" d="M75.6,261.2l0.1,0l4.6,1.6l6.8-3.1l0.1-3.5L75.6,261.2z M72.7,271.2l-5.7-1.8l-0.6,10.8l-0.6,0.3l0,0l0.6-0.3
			l0.6-10.8L72.7,271.2l0.6-0.4l0,0L72.7,271.2L72.7,271.2z M47.9,273.1l-4.9,2.1v13.1c0,7.4,5.2,12.3,12.8,14.7
			c1.4,0.6,3.6,1.1,6,1.7V303c-9.3-5.7-12.3-16.6-1.5-21.6l1.5-0.6v-0.1l0.1,0v-13.6l12.4-5.3l6.1,2.1l-6.1-2.1L47.9,273.1
			L47.9,273.1z"/>
	</g>
</g>
</svg>
