<svg xmlns="http://www.w3.org/2000/svg" viewBox="0 0 24 24" id="svg9064462058"><path d="M 12 2 C 9.38 2 7.25 4.13 7.25 6.75 C 7.25 9.32 9.26 11.4 11.88 11.49 C 11.96 11.48 12.04 11.48 12.1 11.49 C 12.12 11.49 12.13 11.49 12.15 11.49 C 12.16 11.49 12.16 11.49 12.17 11.49 C 14.73 11.4 16.74 9.32 16.75 6.75 C 16.75 4.13 14.62 2 12 2 Z" fill="var(--token-376485fe-ee2c-4f0b-9221-49086a3eaaab, rgb(202, 203, 205)) /* {&quot;name&quot;:&quot;Bottomnav-icon&quot;} */"></path><path d="M 17.081 14.149 C 14.291 12.289 9.741 12.289 6.931 14.149 C 5.661 14.999 4.961 16.149 4.961 17.379 C 4.961 18.609 5.661 19.749 6.921 20.589 C 8.321 21.529 10.161 21.999 12.001 21.999 C 13.841 21.999 15.681 21.529 17.081 20.589 C 18.341 19.739 19.041 18.599 19.041 17.359 C 19.031 16.129 18.341 14.989 17.081 14.149 Z" fill="var(--token-376485fe-ee2c-4f0b-9221-49086a3eaaab, rgb(202, 203, 205)) /* {&quot;name&quot;:&quot;Bottomnav-icon&quot;} */"></path></svg>