<svg xmlns="http://www.w3.org/2000/svg" viewBox="0 0 24 24" id="svg10214928813"><path d="M 20.83 8.01 L 14.28 2.77 C 13 1.75 11 1.74 9.73 2.76 L 3.18 8.01 C 2.24 8.76 1.67 10.26 1.87 11.44 L 3.13 18.98 C 3.42 20.67 4.99 22 6.7 22 L 17.3 22 C 18.99 22 20.59 20.64 20.88 18.97 L 22.14 11.43 C 22.32 10.26 21.75 8.76 20.83 8.01 Z M 12.75 18 C 12.75 18.41 12.41 18.75 12 18.75 C 11.59 18.75 11.25 18.41 11.25 18 L 11.25 15 C 11.25 14.59 11.59 14.25 12 14.25 C 12.41 14.25 12.75 14.59 12.75 15 Z" fill="var(--token-376485fe-ee2c-4f0b-9221-49086a3eaaab, rgb(202, 203, 205)) /* {&quot;name&quot;:&quot;Bottomnav-icon&quot;} */"></path></svg>