<svg xmlns="http://www.w3.org/2000/svg" viewBox="0 0 24 24" id="svg9513780015"><path d="M 16.65 5.719 L 7.35 5.719 C 4.4 5.719 2 8.119 2 11.069 L 2 16.649 C 2 19.599 4.4 21.999 7.35 21.999 L 16.65 21.999 C 19.6 21.999 22 19.599 22 16.649 L 22 11.069 C 22 8.119 19.6 5.719 16.65 5.719 Z M 14.5 12.019 C 14.5 11.469 14.95 11.019 15.5 11.019 C 16.05 11.019 16.5 11.469 16.5 12.019 C 16.5 12.569 16.05 13.029 15.5 13.029 C 14.95 13.029 14.5 12.589 14.5 12.039 Z M 10.13 16.069 C 9.98 16.219 9.79 16.289 9.6 16.289 C 9.41 16.289 9.22 16.219 9.07 16.069 L 8.04 15.039 L 7.05 16.029 C 6.9 16.179 6.71 16.249 6.52 16.249 C 6.33 16.249 6.14 16.179 5.99 16.029 C 5.7 15.739 5.7 15.259 5.99 14.969 L 6.98 13.979 L 6.02 13.019 C 5.73 12.729 5.73 12.249 6.02 11.959 C 6.31 11.669 6.79 11.669 7.08 11.959 L 8.04 12.919 L 9.03 11.929 C 9.32 11.639 9.8 11.639 10.09 11.929 C 10.38 12.219 10.38 12.699 10.09 12.989 L 9.1 13.979 L 10.13 15.009 C 10.42 15.299 10.42 15.779 10.13 16.069 Z M 13.54 14.999 C 12.99 14.999 12.53 14.549 12.53 13.999 C 12.53 13.449 12.97 12.999 13.52 12.999 L 13.54 12.999 C 14.09 12.999 14.54 13.449 14.54 13.999 C 14.54 14.549 14.1 14.999 13.54 14.999 Z M 15.5 16.969 C 14.95 16.969 14.5 16.529 14.5 15.979 L 14.5 15.959 C 14.5 15.409 14.95 14.959 15.5 14.959 C 16.05 14.959 16.5 15.409 16.5 15.959 C 16.5 16.509 16.06 16.969 15.5 16.969 Z M 17.48 14.999 C 16.93 14.999 16.47 14.549 16.47 13.999 C 16.47 13.449 16.91 12.999 17.46 12.999 L 17.48 12.999 C 18.03 12.999 18.48 13.449 18.48 13.999 C 18.48 14.549 18.04 14.999 17.48 14.999 Z" fill="var(--token-376485fe-ee2c-4f0b-9221-49086a3eaaab, rgb(202, 203, 205)) /* {&quot;name&quot;:&quot;Bottomnav-icon&quot;} */"></path><path d="M 13.639 2.71 L 13.629 3.65 C 13.619 4.53 12.889 5.26 11.999 5.26 C 11.849 5.26 11.759 5.36 11.759 5.49 C 11.759 5.62 11.859 5.72 11.989 5.72 L 10.379 5.72 C 10.369 5.65 10.359 5.57 10.359 5.49 C 10.359 4.59 11.089 3.86 11.979 3.86 C 12.129 3.86 12.229 3.76 12.229 3.63 L 12.239 2.69 C 12.249 2.31 12.559 2 12.939 2 L 12.949 2 C 13.339 2 13.639 2.32 13.639 2.71 Z" fill="var(--token-376485fe-ee2c-4f0b-9221-49086a3eaaab, rgb(202, 203, 205)) /* {&quot;name&quot;:&quot;Bottomnav-icon&quot;} */"></path></svg>