<svg xmlns="http://www.w3.org/2000/svg" viewBox="0 0 24 24" id="svg9819747983"><path d="M 12.678 19.959 C 12.953 20.023 12.978 20.383 12.71 20.472 L 11.13 20.992 C 7.16 22.272 5.07 21.202 3.78 17.232 L 2.5 13.282 C 1.22 9.312 2.28 7.212 6.25 5.932 L 6.774 5.758 C 7.177 5.625 7.569 6.029 7.455 6.438 C 7.398 6.64 7.344 6.852 7.29 7.072 L 6.31 11.262 C 5.21 15.972 6.82 18.572 11.53 19.692 Z" fill="var(--token-376485fe-ee2c-4f0b-9221-49086a3eaaab, rgb(202, 203, 205)) /* {&quot;name&quot;:&quot;Bottomnav-icon&quot;} */"></path><path d="M 17.17 3.209 L 15.5 2.819 C 12.16 2.029 10.17 2.679 9 5.099 C 8.7 5.709 8.46 6.449 8.26 7.299 L 7.28 11.489 C 6.3 15.669 7.59 17.729 11.76 18.718 L 13.44 19.119 C 14.02 19.259 14.56 19.349 15.06 19.389 C 18.18 19.689 19.84 18.229 20.68 14.619 L 21.66 10.438 C 22.64 6.259 21.36 4.189 17.17 3.209 Z M 15.29 13.329 C 15.2 13.669 14.9 13.889 14.56 13.889 C 14.5 13.889 14.44 13.879 14.37 13.869 L 11.46 13.129 C 11.06 13.029 10.82 12.619 10.92 12.219 C 11.02 11.819 11.43 11.579 11.83 11.679 L 14.74 12.419 C 15.15 12.519 15.39 12.929 15.29 13.329 Z M 18.22 9.949 C 18.13 10.289 17.83 10.509 17.49 10.509 C 17.43 10.509 17.37 10.499 17.3 10.489 L 12.45 9.259 C 12.05 9.159 11.81 8.749 11.91 8.349 C 12.01 7.949 12.42 7.709 12.82 7.809 L 17.67 9.039 C 18.08 9.129 18.32 9.539 18.22 9.949 Z" fill="var(--token-376485fe-ee2c-4f0b-9221-49086a3eaaab, rgb(202, 203, 205)) /* {&quot;name&quot;:&quot;Bottomnav-icon&quot;} */"></path></svg>